<svg width="1414" height="630" viewBox="0 0 1414 630" fill="none" xmlns="http://www.w3.org/2000/svg">
<path d="M1353.55 536.463C1608.05 -137.537 -90.9307 727.392 40.9994 157.462" stroke="#D1D1D1" stroke-width="6" stroke-linecap="round"/>
<rect width="24.7182" height="37.1682" rx="5" transform="matrix(-0.962699 -0.270574 -0.270574 0.962699 62.5791 128.151)" fill="#D1D1D1"/>
<rect x="-1.24822" y="0.664786" width="17" height="19.3708" transform="matrix(-0.956504 -0.291718 -0.291718 0.956504 63.3309 109.67)" stroke="#D1D1D1" stroke-width="2"/>
<rect width="3" height="5.75368" transform="matrix(-0.956504 -0.291718 -0.291718 0.956504 59.835 115.128)" fill="#C4C4C4"/>
<rect width="3" height="5.75368" transform="matrix(-0.956504 -0.291718 -0.291718 0.956504 52.1831 112.794)" fill="#C4C4C4"/>
<rect width="21" height="35" rx="2" transform="matrix(-0.936357 -0.351049 -0.351049 0.936357 1363.46 539.507)" fill="#D1D1D1"/>
<rect x="1336.64" y="565.12" width="11.4088" height="10" rx="1" transform="rotate(20.3762 1336.64 565.12)" stroke="#D1D1D1" stroke-width="2"/>
</svg>
