<svg width="1920" height="588" viewBox="0 0 1920 588" fill="none" xmlns="http://www.w3.org/2000/svg">
<path d="M155.384 247.493C155.384 243.263 152.756 239.859 149.509 239.859C145.11 239.616 140.624 239.521 136.04 239.521H134.611C130.038 239.521 125.544 239.616 121.146 239.86C117.906 239.86 115.278 243.282 115.278 247.513C115.08 250.859 114.996 254.206 115 257.553C114.993 260.901 115.083 264.251 115.27 267.604C115.27 271.835 117.898 275.267 121.138 275.267C125.759 275.521 130.498 275.633 135.318 275.624C140.145 275.643 144.872 275.524 149.498 275.267C152.745 275.267 155.373 271.835 155.373 267.604C155.563 264.248 155.651 260.901 155.643 257.544C155.661 254.197 155.575 250.847 155.384 247.493ZM131.435 266.777V248.302L142.948 257.535L131.435 266.777Z" fill="white"/>
<path fill-rule="evenodd" clip-rule="evenodd" d="M216 256.479C216 246.45 209.283 238.318 201 238.318C192.717 238.318 186 246.45 186 256.479C186 265.543 191.484 273.057 198.656 274.42V261.73H194.847V256.479H198.656V252.478C198.656 247.927 200.896 245.411 204.322 245.411C205.963 245.411 207.68 245.766 207.68 245.766V250.236H205.788C203.926 250.236 203.343 251.635 203.343 253.074V256.479H207.503L206.839 261.73H203.344V274.422C210.516 273.059 216 265.546 216 256.479Z" fill="white"/>
<path d="M268.25 243.733C269.906 243.739 271.493 244.533 272.664 245.943C273.835 247.352 274.495 249.262 274.5 251.255V266.298C274.495 268.292 273.835 270.201 272.664 271.611C271.493 273.02 269.906 273.815 268.25 273.821H255.75C254.094 273.815 252.507 273.02 251.336 271.611C250.165 270.201 249.505 268.292 249.5 266.298V251.255C249.505 249.262 250.165 247.352 251.336 245.943C252.507 244.533 254.094 243.739 255.75 243.733H268.25ZM268.25 240.725H255.75C250.937 240.725 247 245.463 247 251.255V266.298C247 272.09 250.937 276.829 255.75 276.829H268.25C273.062 276.829 277 272.09 277 266.298V251.255C277 245.463 273.062 240.725 268.25 240.725Z" fill="white"/>
<path d="M270.125 251.255C269.754 251.255 269.391 251.123 269.083 250.875C268.775 250.627 268.534 250.275 268.392 249.862C268.251 249.45 268.213 248.996 268.286 248.559C268.358 248.121 268.537 247.719 268.799 247.403C269.061 247.088 269.395 246.873 269.759 246.786C270.123 246.698 270.5 246.743 270.842 246.914C271.185 247.085 271.478 247.374 271.684 247.745C271.89 248.116 272 248.552 272 248.999C272 249.295 271.952 249.589 271.858 249.863C271.764 250.137 271.626 250.386 271.452 250.596C271.278 250.805 271.071 250.972 270.843 251.085C270.615 251.198 270.371 251.256 270.125 251.255ZM262 252.759C262.989 252.759 263.956 253.112 264.778 253.773C265.6 254.435 266.241 255.374 266.62 256.474C266.998 257.574 267.097 258.784 266.904 259.951C266.711 261.118 266.235 262.191 265.536 263.032C264.836 263.874 263.945 264.447 262.975 264.679C262.006 264.911 261 264.792 260.086 264.337C259.173 263.881 258.392 263.11 257.842 262.12C257.293 261.131 257 259.967 257 258.777C257.001 257.181 257.528 255.652 258.466 254.524C259.403 253.395 260.674 252.761 262 252.759ZM262 249.751C260.517 249.751 259.067 250.28 257.833 251.272C256.6 252.264 255.639 253.673 255.071 255.323C254.503 256.972 254.355 258.787 254.644 260.538C254.934 262.289 255.648 263.897 256.697 265.159C257.746 266.422 259.082 267.282 260.537 267.63C261.992 267.978 263.5 267.799 264.87 267.116C266.241 266.433 267.412 265.276 268.236 263.792C269.06 262.307 269.5 260.562 269.5 258.777C269.5 256.383 268.71 254.087 267.303 252.394C265.897 250.702 263.989 249.751 262 249.751Z" fill="white"/>
<rect y="120" width="1920" height="468" fill="#133774"/>
<path opacity="0.25" d="M0 120V73.71C76.464 51.51 165.744 41.54 252.8 45.71C365.376 51.08 470.928 79.02 583.68 83.21C701.824 87.57 819.744 66.33 932.8 47.95C1043.63 29.95 1154.08 23.07 1267.84 34.87C1325.68 40.87 1379.6 52.71 1434.96 64.21C1583.18 95 1780.8 134.29 1920 67.53V120H0Z" fill="#1B4EA3"/>
<path opacity="0.5" d="M0 120V104.19C20.8 83.08 44.224 63.14 76.304 47.95C159.056 8.73 264 9 359.328 28.42C409.168 38.57 455.472 54.49 502.8 68.22C568.272 87.22 638.368 114.22 712.128 117.89C770.144 120.74 825.568 108.47 869.888 86.33C920.72 60.94 969.6 24.33 1035.7 13.33C1100.4 2.54 1165.86 20.02 1226.3 37.61C1286.75 55.2 1346.56 76.61 1413.38 80.66C1508.94 86.51 1594.62 57.78 1683.62 41.82C1731.94 33.16 1778.02 35.65 1822.96 49.32C1858.85 60.21 1899.76 76.25 1920 98.56V120H0Z" fill="#1B4EA3"/>
<path d="M0 120V114.37C239.888 61 502.544 48.68 761.328 77.43C830.128 85.07 896.096 97.55 965.504 103.89C1059.9 112.52 1145.47 91.65 1230.4 68.49C1324.69 42.78 1417.6 24.76 1521.92 30C1660.37 37 1797.86 75.71 1920 114.81V120H0Z" fill="#133774"/>
</svg>
