<svg width="1920" height="4761" viewBox="0 0 1920 4761" fill="none" xmlns="http://www.w3.org/2000/svg">
<path d="M2052.75 2567.03C1611.97 3285.91 358.348 3179.02 -213.369 3035.71C-556.399 2659.83 -465.159 2035.7 -376.661 1770.63C-322.23 1110.48 -78.5063 -536.364 460.944 -1842.56C1000.39 -3148.76 2223.09 -1774.43 2767 -923.995C2712.57 -59.8518 2493.52 1848.15 2052.75 2567.03Z" fill="#3360D3"/>
<path opacity="0.07" d="M5252.77 2229.64C5736.33 2920.46 5138.53 4027.54 4779.18 4494.73C4297.7 4659.47 3761.7 4326.98 3553.88 4140.14C2970.16 3827.05 1557 2946.99 574.148 1931.53C-408.705 916.073 1339.13 342.638 2335.9 182.854C3106.71 577.273 4769.21 1538.82 5252.77 2229.64Z" fill="black"/>
<path d="M-606.628 1351.81C-1802.63 1169.81 -1689.96 2171.64 -1484.13 2695.31C-1523.8 2828.81 -1601.03 3121.81 -1592.63 3225.81C-1582.13 3355.81 -1137.63 3735.31 -790.628 4211.81C-513.028 4593.01 393.705 4644.98 812.372 4623.31C1202.37 4608.81 2014.87 4493.21 2144.87 4146.81C2307.37 3713.81 2187.87 3171.81 1548.87 2056.31C909.872 940.809 888.372 1579.31 -606.628 1351.81Z" stroke="#FFBC10" stroke-width="35"/>
<path opacity="0.45" d="M794.239 1335.64C244.832 764.965 -251.333 1017.08 -430.74 1214.47C-1313.77 3347.03 -376.877 4211.99 201.948 4377.89C632.856 4463.23 1567.39 4536.96 1858.25 4149.23C2221.83 3664.55 1481 2048.98 794.239 1335.64Z" stroke="#476ED3" stroke-width="35"/>
</svg>