<svg width="1920" height="4320" viewBox="0 0 1920 4320" fill="none" xmlns="http://www.w3.org/2000/svg">
<g clip-path="url(#clip0)">
<rect width="1920" height="4320" fill="white"/>
<rect width="1920" height="81" fill="white"/>
<path d="M1570.1 2651.2C1145.59 3343.52 -61.7745 3240.58 -612.396 3102.57C-942.768 2740.57 -854.895 2139.51 -769.662 1884.23C-717.24 1248.47 -482.509 -337.523 37.0356 -1595.46C556.581 -2853.39 1734.16 -1529.85 2258 -710.831C2205.58 121.382 1994.61 1958.89 1570.1 2651.2Z" fill="#3360D3"/>
<path opacity="0.07" d="M3534.35 2228.09C3827.19 2646.44 3465.17 3316.86 3247.56 3599.78C2955.99 3699.54 2631.39 3498.19 2505.54 3385.05C2152.06 3195.45 1296.28 2662.51 701.091 2047.57C105.898 1432.63 1164.35 1085.37 1767.97 988.609C2234.75 1227.46 3241.52 1809.75 3534.35 2228.09Z" fill="black"/>
<path d="M-13.9595 1696.5C-738.229 1586.29 -670.001 2192.97 -545.353 2510.09C-569.374 2590.94 -616.145 2768.37 -611.058 2831.35C-604.699 2910.08 -335.521 3139.89 -125.386 3428.45C42.7225 3659.29 591.819 3690.76 845.354 3677.64C1081.53 3668.86 1573.56 3598.86 1652.28 3389.09C1750.69 3126.87 1678.32 2798.65 1291.36 2123.13C904.397 1447.61 891.377 1834.27 -13.9595 1696.5Z" stroke="#FFBC10" stroke-width="35"/>
<path opacity="0.45" d="M834.373 1686.71C501.665 1341.12 201.199 1493.8 92.5542 1613.33C-442.187 2904.76 125.173 3428.56 475.695 3529.03C736.643 3580.7 1302.57 3625.36 1478.71 3390.55C1698.89 3097.04 1250.26 2118.69 834.373 1686.71Z" stroke="#476ED3" stroke-width="35"/>
<rect width="1920" height="80" fill="#FCFCFC"/>
</g>
<defs>
<clipPath id="clip0">
<rect width="1920" height="4320" fill="white"/>
</clipPath>
</defs>
</svg>
