<svg width="1920" height="2332" viewBox="0 0 1920 2332" fill="none" xmlns="http://www.w3.org/2000/svg">
<g clip-path="url(#clip0)">
<rect width="1920" height="2332" fill="white"/>
<path d="M1520.77 1154.09C1207.1 1665.65 314.955 1589.59 -91.908 1487.61C-336.026 1220.12 -271.095 775.987 -208.115 587.355C-169.379 117.585 4.06708 -1054.33 387.967 -1983.84C771.868 -2913.35 1642 -1935.36 2029.07 -1330.18C1990.34 -715.239 1834.45 642.523 1520.77 1154.09Z" fill="#3360D3"/>
<path opacity="0.07" d="M2972.19 839.444C3188.57 1148.57 2921.07 1643.95 2760.28 1853.01C2544.83 1926.72 2304.98 1777.94 2211.99 1694.34C1950.79 1554.24 1318.45 1160.44 878.649 706.052C438.851 251.664 1220.96 -4.9316 1666.98 -76.4306C2011.89 100.06 2755.81 530.323 2972.19 839.444Z" fill="black"/>
<path d="M350.286 730.642C-184.888 649.202 -134.473 1097.49 -42.3691 1331.82C-60.1187 1391.56 -94.6784 1522.66 -90.9196 1569.2C-86.2212 1627.37 112.679 1797.19 267.952 2010.41C392.169 2180.98 797.906 2204.24 985.247 2194.54C1159.76 2188.05 1523.33 2136.33 1581.5 1981.32C1654.22 1787.57 1600.74 1545.04 1314.81 1045.88C1028.88 546.731 1019.25 832.441 350.286 730.642Z" stroke="#FFBC10" stroke-width="35"/>
<path opacity="0.45" d="M977.133 723.405C731.29 468.047 509.27 580.86 428.991 669.186C33.8616 1623.44 453.093 2010.49 712.1 2084.72C904.919 2122.91 1323.09 2155.91 1453.25 1982.4C1615.94 1765.53 1284.44 1042.6 977.133 723.405Z" stroke="#476ED3" stroke-width="35"/>
</g>
<defs>
<clipPath id="clip0">
<rect width="1920" height="2332" fill="white"/>
</clipPath>
</defs>
</svg>
