<!-- <svg width="1920" height="120" viewBox="0 0 1920 120" fill="none" xmlns="http://www.w3.org/2000/svg">
<path opacity="0.25" d="M0 120V73.71C76.464 51.51 165.744 41.54 252.8 45.71C365.376 51.08 470.928 79.02 583.68 83.21C701.824 87.57 819.744 66.33 932.8 47.95C1043.63 29.95 1154.08 23.07 1267.84 34.87C1325.68 40.87 1379.6 52.71 1434.96 64.21C1583.18 95 1780.8 134.29 1920 67.53V120H0Z" fill="#337AF1"/>
<path opacity="0.5" d="M0 120V104.19C20.8 83.08 44.224 63.14 76.304 47.95C159.056 8.73 264 9 359.328 28.42C409.168 38.57 455.472 54.49 502.8 68.22C568.272 87.22 638.368 114.22 712.128 117.89C770.144 120.74 825.568 108.47 869.888 86.33C920.72 60.94 969.6 24.33 1035.7 13.33C1100.4 2.54 1165.86 20.02 1226.3 37.61C1286.75 55.2 1346.56 76.61 1413.38 80.66C1508.94 86.51 1594.62 57.78 1683.62 41.82C1731.94 33.16 1778.02 35.65 1822.96 49.32C1858.85 60.21 1899.76 76.25 1920 98.56V120H0Z" fill="#337AF1"/>
<path d="M0 120V114.37C239.888 61 502.544 48.68 761.328 77.43C830.128 85.07 896.096 97.55 965.504 103.89C1059.9 112.52 1145.47 91.65 1230.4 68.49C1324.69 42.78 1417.6 24.76 1521.92 30C1660.37 37 1797.86 75.71 1920 114.81V120H0Z" fill="#3360D3"/>
</svg> -->
<svg  viewBox="0 0 1920 120" fill="none" xmlns="http://www.w3.org/2000/svg">
<path opacity="0.25" d="M0 120V73.71C76.464 51.51 165.744 41.54 252.8 45.71C365.376 51.08 470.928 79.02 583.68 83.21C701.824 87.57 819.744 66.33 932.8 47.95C1043.63 29.95 1154.08 23.07 1267.84 34.87C1325.68 40.87 1379.6 52.71 1434.96 64.21C1583.18 95 1780.8 134.29 1920 67.53V120H0Z" fill="#337AF1"/>
<path opacity="0.5" d="M0 120V104.19C20.8 83.08 44.224 63.14 76.304 47.95C159.056 8.73 264 9 359.328 28.42C409.168 38.57 455.472 54.49 502.8 68.22C568.272 87.22 638.368 114.22 712.128 117.89C770.144 120.74 825.568 108.47 869.888 86.33C920.72 60.94 969.6 24.33 1035.7 13.33C1100.4 2.54 1165.86 20.02 1226.3 37.61C1286.75 55.2 1346.56 76.61 1413.38 80.66C1508.94 86.51 1594.62 57.78 1683.62 41.82C1731.94 33.16 1778.02 35.65 1822.96 49.32C1858.85 60.21 1899.76 76.25 1920 98.56V120H0Z" fill="#337AF1"/>
<path d="M0 120V114.37C239.888 61 502.544 48.68 761.328 77.43C830.128 85.07 896.096 97.55 965.504 103.89C1059.9 112.52 1145.47 91.65 1230.4 68.49C1324.69 42.78 1417.6 24.76 1521.92 30C1660.37 37 1797.86 75.71 1920 114.81V120H0Z" fill="#3360D3"/>
</svg>